<svg xmlns="http://www.w3.org/2000/svg" viewBox="0 0 639 639" width="639" height="639" style="width:100%;height:100%;transform:translate3d(0,0,0);content-visibility:visible"><defs><radialGradient id="u" spreadMethod="pad" gradientUnits="userSpaceOnUse" cx="-.133" cy="-.065" r="3.717" fx="-.133" fy="-.065"><stop offset="0%" stop-color="#FFF"/><stop offset="50%" stop-color="#FFF" stop-opacity=".5"/><stop offset="100%" stop-color="#FFF" stop-opacity="0"/></radialGradient><radialGradient id="t" spreadMethod="pad" gradientUnits="userSpaceOnUse" cx="-.133" cy="-.065" r="3.717" fx="-.133" fy="-.065"><stop offset="0%" stop-color="#FFF"/><stop offset="50%" stop-color="#FFF" stop-opacity=".5"/><stop offset="100%" stop-color="#FFF" stop-opacity="0"/></radialGradient><radialGradient id="s" spreadMethod="pad" gradientUnits="userSpaceOnUse" cx="-.133" cy="-.065" r="3.717" fx="-.133" fy="-.065"><stop offset="0%" stop-color="#FFF"/><stop offset="50%" stop-color="#FFF" stop-opacity=".5"/><stop offset="100%" stop-color="#FFF" stop-opacity="0"/></radialGradient><radialGradient id="r" spreadMethod="pad" gradientUnits="userSpaceOnUse" cx="-.133" cy="-.065" r="3.717" fx="-.133" fy="-.065"><stop offset="0%" stop-color="#FFF"/><stop offset="50%" stop-color="#FFF" stop-opacity=".5"/><stop offset="100%" stop-color="#FFF" stop-opacity="0"/></radialGradient><radialGradient id="q" spreadMethod="pad" gradientUnits="userSpaceOnUse" cx="-.133" cy="-.065" r="3.717" fx="-.133" fy="-.065"><stop offset="0%" stop-color="#FFF"/><stop offset="50%" stop-color="#FFF" stop-opacity=".5"/><stop offset="100%" stop-color="#FFF" stop-opacity="0"/></radialGradient><radialGradient id="p" spreadMethod="pad" gradientUnits="userSpaceOnUse" cx="-.133" cy="-.065" r="3.717" fx="-.133" fy="-.065"><stop offset="0%" stop-color="#FFF"/><stop offset="50%" stop-color="#FFF" stop-opacity=".5"/><stop offset="100%" stop-color="#FFF" stop-opacity="0"/></radialGradient><radialGradient id="o" spreadMethod="pad" gradientUnits="userSpaceOnUse" cx="-.133" cy="-.065" r="3.717" fx="-.133" fy="-.065"><stop offset="0%" stop-color="#FFF"/><stop offset="50%" stop-color="#FFF" stop-opacity=".5"/><stop offset="100%" stop-color="#FFF" stop-opacity="0"/></radialGradient><radialGradient id="n" spreadMethod="pad" gradientUnits="userSpaceOnUse" cx="-.133" cy="-.065" r="3.717" fx="-.133" fy="-.065"><stop offset="0%" stop-color="#FFF"/><stop offset="50%" stop-color="#FFF" stop-opacity=".5"/><stop offset="100%" stop-color="#FFF" stop-opacity="0"/></radialGradient><radialGradient id="m" spreadMethod="pad" gradientUnits="userSpaceOnUse" cx="-.133" cy="-.065" r="3.717" fx="-.133" fy="-.065"><stop offset="0%" stop-color="#FFF"/><stop offset="50%" stop-color="#FFF" stop-opacity=".5"/><stop offset="100%" stop-color="#FFF" stop-opacity="0"/></radialGradient><radialGradient id="l" spreadMethod="pad" gradientUnits="userSpaceOnUse" cx="-.133" cy="-.065" r="3.717" fx="-.133" fy="-.065"><stop offset="0%" stop-color="#FFF"/><stop offset="50%" stop-color="#FFF" stop-opacity=".5"/><stop offset="100%" stop-color="#FFF" stop-opacity="0"/></radialGradient><radialGradient id="k" spreadMethod="pad" gradientUnits="userSpaceOnUse" cx="-.133" cy="-.065" r="3.717" fx="-.133" fy="-.065"><stop offset="0%" stop-color="#FFF"/><stop offset="50%" stop-color="#FFF" stop-opacity=".5"/><stop offset="100%" stop-color="#FFF" stop-opacity="0"/></radialGradient><radialGradient id="j" spreadMethod="pad" gradientUnits="userSpaceOnUse" cx="-.133" cy="-.065" r="3.717" fx="-.133" fy="-.065"><stop offset="0%" stop-color="#FFF"/><stop offset="50%" stop-color="#FFF" stop-opacity=".5"/><stop offset="100%" stop-color="#FFF" stop-opacity="0"/></radialGradient><radialGradient id="i" spreadMethod="pad" gradientUnits="userSpaceOnUse" cx="-.133" cy="-.065" r="3.717" fx="-.133" fy="-.065"><stop offset="0%" stop-color="#FFF"/><stop offset="50%" stop-color="#FFF" stop-opacity=".5"/><stop offset="100%" stop-color="#FFF" stop-opacity="0"/></radialGradient><radialGradient id="h" spreadMethod="pad" gradientUnits="userSpaceOnUse" cx="-.133" cy="-.065" r="3.717" fx="-.133" fy="-.065"><stop offset="0%" stop-color="#FFF"/><stop offset="50%" stop-color="#FFF" stop-opacity=".5"/><stop offset="100%" stop-color="#FFF" stop-opacity="0"/></radialGradient><radialGradient id="f" spreadMethod="pad" gradientUnits="userSpaceOnUse" cx="176" cy="122" r="91.049" fx="189.693" fy="109.995"><stop offset="0%"/><stop offset="50%" stop-color="#3B2C60"/><stop offset="100%" stop-color="#7757BF"/></radialGradient><radialGradient id="e" spreadMethod="pad" gradientUnits="userSpaceOnUse" cx="176" cy="122" r="91.049" fx="189.693" fy="109.995"><stop offset="0%" stop-color="#D1B44B"/><stop offset="50%" stop-color="#90B394"/><stop offset="100%" stop-color="#4FB2DD"/></radialGradient><clipPath id="a"><path d="M0 0h639v639H0z"/></clipPath><clipPath id="b"><path d="M0 0h639v639H0z"/></clipPath><clipPath id="g"><path d="M0 0h639v639H0z"/></clipPath><clipPath id="c"><path d="M0 0h308v308H0z"/></clipPath><linearGradient id="d" spreadMethod="pad" gradientUnits="userSpaceOnUse" x1="3" y1="114" x2="118" y2="-18"><stop offset="0%" stop-color="#7757C0"/><stop offset="53%" stop-color="#6385CE"/><stop offset="100%" stop-color="#4FB2DD"/></linearGradient></defs><g clip-path="url(#a)"><g clip-path="url(#b)" style="display:block"><path d="M518.22 190.692h30.96v-78.84c-.36-13.176-9.72-22.392-22.824-22.392h-78.48v30.96h70.272v70.272h.072zm-397.8 257.256H89.46v78.84c.36 13.177 9.72 22.32 22.752 22.32h78.48v-30.96H120.42v-70.2zm397.8 70.272h-70.272v30.96h78.48c13.032 0 22.392-9.215 22.752-22.392v-78.84h-30.96v70.273zM89.46 111.78v78.84h30.96v-70.2h70.272V89.46h-78.48c-13.032 0-22.392 9.216-22.752 22.32z" style="display:block"/><g clip-path="url(#c)" transform="rotate(25.148 -249.928 681.228) scale(.72601)" style="display:block"><path fill="url(#d)" d="M153.824 0C123.546 0 97.17 16.672 83.36 41.335 73.463 59.01 59.01 73.463 41.335 83.36 16.672 97.17 0 123.546 0 153.823c0 30.278 16.672 56.654 41.335 70.464 17.675 9.896 32.128 24.35 42.025 42.025 13.81 24.663 40.186 41.335 70.464 41.335s56.653-16.672 70.462-41.335c9.898-17.675 24.352-32.129 42.025-42.025 24.664-13.81 41.336-40.186 41.336-70.464 0-30.277-16.672-56.653-41.336-70.463-17.673-9.897-32.127-24.35-42.025-42.025C210.477 16.672 184.102 0 153.824 0z" transform="translate(.176 .176)" style="display:block"/><path fill="url(#e)" fill-rule="evenodd" d="M149.769 80.732c0 43.707 35.432 79.139 79.139 79.139 30.446 0 56.859-17.203 70.095-42.409a81.057 81.057 0 0 0-32.692-34.102c-17.673-9.897-32.127-24.35-42.025-42.025a81.091 81.091 0 0 0-31.21-31.16c-25.695 13.076-43.307 39.751-43.307 70.557z" transform="translate(-1.386 -.023)" style="display:block"/><path fill="url(#f)" fill-rule="evenodd" d="M149.769 80.732c0 43.707 35.432 79.139 79.139 79.139 30.446 0 56.859-17.203 70.095-42.409a81.057 81.057 0 0 0-32.692-34.102c-17.673-9.897-32.127-24.35-42.025-42.025a81.091 81.091 0 0 0-31.21-31.16c-25.695 13.076-43.307 39.751-43.307 70.557z" transform="rotate(180 154.417 154.464)" style="display:block"/></g><g clip-path="url(#g)" style="display:block"><g style="display:block"><path fill="url(#h)" d="M0-3.556A3.558 3.558 0 0 1 3.556 0 3.558 3.558 0 0 1 0 3.556 3.558 3.558 0 0 1-3.556 0 3.558 3.558 0 0 1 0-3.556z" transform="translate(321.24 321.96)"/><path d="M321.24 318.403a3.558 3.558 0 0 1 3.556 3.557 3.558 3.558 0 0 1-3.556 3.556 3.558 3.558 0 0 1-3.557-3.556 3.558 3.558 0 0 1 3.557-3.557z" fill="none"/></g><g style="display:block"><path fill="url(#i)" d="M0-3.556A3.558 3.558 0 0 1 3.556 0 3.558 3.558 0 0 1 0 3.556 3.558 3.558 0 0 1-3.556 0 3.558 3.558 0 0 1 0-3.556z" transform="translate(371.24 372.972) scale(.97672)"/><path d="M371.24 369.498a3.475 3.475 0 0 1 3.474 3.474 3.475 3.475 0 0 1-3.474 3.473 3.475 3.475 0 0 1-3.474-3.473 3.475 3.475 0 0 1 3.474-3.474z" fill="none"/></g><g style="display:block"><path fill="url(#j)" d="M0-3.556A3.558 3.558 0 0 1 3.556 0 3.558 3.558 0 0 1 0 3.556 3.558 3.558 0 0 1-3.556 0 3.558 3.558 0 0 1 0-3.556z" transform="translate(319.24 402.972) scale(.97672)"/><path d="M319.24 399.498a3.475 3.475 0 0 1 3.474 3.474 3.475 3.475 0 0 1-3.474 3.473 3.475 3.475 0 0 1-3.474-3.473 3.475 3.475 0 0 1 3.474-3.474z" fill="none"/></g><g style="display:block"><path fill="url(#k)" d="M0-3.556A3.558 3.558 0 0 1 3.556 0 3.558 3.558 0 0 1 0 3.556 3.558 3.558 0 0 1-3.556 0 3.558 3.558 0 0 1 0-3.556z" transform="translate(339.24 267.972) scale(.97672)"/><path d="M339.24 264.498a3.475 3.475 0 0 1 3.474 3.474 3.475 3.475 0 0 1-3.474 3.473 3.475 3.475 0 0 1-3.474-3.473 3.475 3.475 0 0 1 3.474-3.474z" fill="none"/></g><g style="display:block"><path fill="url(#l)" d="M0-3.556A3.558 3.558 0 0 1 3.556 0 3.558 3.558 0 0 1 0 3.556 3.558 3.558 0 0 1-3.556 0 3.558 3.558 0 0 1 0-3.556z" transform="translate(233.24 236.972) scale(.97672)"/><path d="M233.24 233.498a3.475 3.475 0 0 1 3.474 3.474 3.475 3.475 0 0 1-3.474 3.473 3.475 3.475 0 0 1-3.474-3.473 3.475 3.475 0 0 1 3.474-3.474z" fill="none"/></g><g style="display:block"><path fill="url(#m)" d="M0-3.556A3.558 3.558 0 0 1 3.556 0 3.558 3.558 0 0 1 0 3.556 3.558 3.558 0 0 1-3.556 0 3.558 3.558 0 0 1 0-3.556z" transform="translate(194.24 309.972) scale(.97672)"/><path d="M194.24 306.498a3.475 3.475 0 0 1 3.474 3.474 3.475 3.475 0 0 1-3.474 3.473 3.475 3.475 0 0 1-3.474-3.473 3.475 3.475 0 0 1 3.474-3.474z" fill="none"/></g><g style="display:block"><path fill="url(#n)" d="M0-3.556A3.558 3.558 0 0 1 3.556 0 3.558 3.558 0 0 1 0 3.556 3.558 3.558 0 0 1-3.556 0 3.558 3.558 0 0 1 0-3.556z" transform="translate(194.24 440.972) scale(.97672)"/><path d="M194.24 437.498a3.475 3.475 0 0 1 3.474 3.474 3.475 3.475 0 0 1-3.474 3.473 3.475 3.475 0 0 1-3.474-3.473 3.475 3.475 0 0 1 3.474-3.474z" fill="none"/></g><g style="display:block"><path fill="url(#o)" d="M0-3.556A3.558 3.558 0 0 1 3.556 0 3.558 3.558 0 0 1 0 3.556 3.558 3.558 0 0 1-3.556 0 3.558 3.558 0 0 1 0-3.556z" transform="translate(446.24 317.972) scale(.97672)"/><path d="M446.24 314.498a3.475 3.475 0 0 1 3.474 3.474 3.475 3.475 0 0 1-3.474 3.473 3.475 3.475 0 0 1-3.474-3.473 3.475 3.475 0 0 1 3.474-3.474z" fill="none"/></g><g style="display:block"><path fill="url(#p)" d="M0-3.556A3.558 3.558 0 0 1 3.556 0 3.558 3.558 0 0 1 0 3.556 3.558 3.558 0 0 1-3.556 0 3.558 3.558 0 0 1 0-3.556z" transform="translate(272.24 296.96)"/><path d="M272.24 293.403a3.558 3.558 0 0 1 3.556 3.557 3.558 3.558 0 0 1-3.556 3.556 3.558 3.558 0 0 1-3.557-3.556 3.558 3.558 0 0 1 3.557-3.557z" fill="none"/></g><g style="display:block"><path fill="url(#q)" d="M0-3.556A3.558 3.558 0 0 1 3.556 0 3.558 3.558 0 0 1 0 3.556 3.558 3.558 0 0 1-3.556 0 3.558 3.558 0 0 1 0-3.556z" transform="translate(401.24 247.96)"/><path d="M401.24 244.404a3.558 3.558 0 0 1 3.556 3.556 3.558 3.558 0 0 1-3.556 3.557 3.558 3.558 0 0 1-3.557-3.557 3.558 3.558 0 0 1 3.557-3.556z" fill="none"/></g><g style="display:block"><path fill="url(#r)" d="M0-3.556A3.558 3.558 0 0 1 3.556 0 3.558 3.558 0 0 1 0 3.556 3.558 3.558 0 0 1-3.556 0 3.558 3.558 0 0 1 0-3.556z" transform="translate(452.24 404.96)"/><path d="M452.24 401.403a3.558 3.558 0 0 1 3.556 3.557 3.558 3.558 0 0 1-3.556 3.556 3.558 3.558 0 0 1-3.557-3.556 3.558 3.558 0 0 1 3.557-3.557z" fill="none"/></g><g style="display:block"><path fill="url(#s)" d="M0-3.556A3.558 3.558 0 0 1 3.556 0 3.558 3.558 0 0 1 0 3.556 3.558 3.558 0 0 1-3.556 0 3.558 3.558 0 0 1 0-3.556z" transform="translate(304.24 226.96)"/><path d="M304.24 223.404a3.558 3.558 0 0 1 3.556 3.556 3.558 3.558 0 0 1-3.556 3.557 3.558 3.558 0 0 1-3.557-3.557 3.558 3.558 0 0 1 3.557-3.556z" fill="none"/></g><g style="display:block"><path fill="url(#t)" d="M0-3.556A3.558 3.558 0 0 1 3.556 0 3.558 3.558 0 0 1 0 3.556 3.558 3.558 0 0 1-3.556 0 3.558 3.558 0 0 1 0-3.556z" transform="translate(481.24 236.96)"/><path d="M481.24 233.404a3.558 3.558 0 0 1 3.556 3.556 3.558 3.558 0 0 1-3.556 3.557 3.558 3.558 0 0 1-3.557-3.557 3.558 3.558 0 0 1 3.557-3.556z" fill="none"/></g><g style="display:block"><path fill="url(#u)" d="M0-3.556A3.558 3.558 0 0 1 3.556 0 3.558 3.558 0 0 1 0 3.556 3.558 3.558 0 0 1-3.556 0 3.558 3.558 0 0 1 0-3.556z" transform="matrix(1.5 0 0 1.5 249.24 390.71)"/><path d="M249.24 385.375a5.337 5.337 0 0 1 5.335 5.335 5.337 5.337 0 0 1-5.335 5.335 5.337 5.337 0 0 1-5.335-5.335 5.337 5.337 0 0 1 5.335-5.335z" fill="none"/></g></g></g></g></svg>